<svg width="40" height="44" viewBox="0 0 40 44" fill="none" xmlns="http://www.w3.org/2000/svg">
<path d="M12.5 33C13.8807 33 15 34.2313 15 35.75C15 37.2687 13.8807 38.5 12.5 38.5C11.1193 38.5 10 37.2687 10 35.75C10 34.2313 11.1193 33 12.5 33Z" stroke="#7E5E60" stroke-width="2"/>
<path d="M27.5 33.0001C28.8807 33.0001 30 34.2312 30 35.7501C30 37.2689 28.8807 38.5001 27.5 38.5001C26.1193 38.5001 25 37.2689 25 35.7501C25 34.2312 26.1193 33.0001 27.5 33.0001Z" stroke="#7E5E60" stroke-width="2"/>
<path d="M3.74794 4.20285C3.09666 3.95097 2.38308 4.32755 2.15411 5.04394C1.92513 5.76036 2.26748 6.5453 2.91874 6.79716L3.74794 4.20285ZM34.4297 18.1184L35.6538 18.396L35.6555 18.3876L34.4297 18.1184ZM9.51348 17.8933V12.9037H7.01348V17.8933H9.51348ZM4.18329 4.3712L3.74794 4.20285L2.91874 6.79716L3.35409 6.96553L4.18329 4.3712ZM18.2292 29.7917H27.0673V27.0417H18.2292V29.7917ZM9.51348 12.9037C9.51348 11.6072 9.51518 10.5254 9.42866 9.64621C9.33911 8.73618 9.14509 7.9062 8.67513 7.14969L6.61103 8.70124C6.76146 8.94341 6.87763 9.27601 6.94318 9.94215C7.01178 10.6392 7.01348 11.5471 7.01348 12.9037H9.51348ZM3.35409 6.96553C4.46678 7.39585 5.19803 7.68103 5.73611 7.97145C6.24148 8.24421 6.46426 8.465 6.61103 8.70124L8.67513 7.14969C8.20149 6.38728 7.57174 5.89899 6.83736 5.50263C6.13566 5.1239 5.23993 4.77985 4.18329 4.3712L3.35409 6.96553ZM7.01348 17.8933C7.01348 20.5563 7.03619 22.4765 7.26461 23.9435C7.50848 25.5097 7.99538 26.6312 8.90576 27.6874L10.72 25.7954C10.1864 25.1763 9.89856 24.57 9.72873 23.4793C9.54346 22.2893 9.51348 20.6232 9.51348 17.8933H7.01348ZM18.2292 27.0417C15.8678 27.0417 14.2294 27.0384 12.9949 26.8459C11.8036 26.66 11.1742 26.3223 10.72 25.7954L8.90576 27.6874C9.89553 28.8358 11.1502 29.3357 12.6439 29.5686C14.0946 29.795 15.9423 29.7917 18.2292 29.7917V27.0417ZM8.26348 12.595H28.4813V9.845H8.26348V12.595ZM33.2053 17.8408L32.3725 22.2862L34.821 22.8413L35.6538 18.396L33.2053 17.8408ZM28.4813 12.595C29.9087 12.595 31.1648 12.5968 32.1562 12.7187C32.6488 12.7793 33.0175 12.8635 33.2765 12.9636C33.5455 13.0676 33.5883 13.1473 33.5668 13.1164L35.5483 11.4396C35.1567 10.8797 34.606 10.5627 34.1053 10.3691C33.5945 10.1717 33.0168 10.0574 32.434 9.98577C31.2743 9.84317 29.8623 9.845 28.4813 9.845V12.595ZM35.6555 18.3876C35.9375 16.8331 36.177 15.5288 36.2357 14.484C36.2958 13.4093 36.1847 12.3496 35.5483 11.4396L33.5668 13.1164C33.6702 13.2643 33.7843 13.5307 33.7403 14.3146C33.6947 15.1285 33.5003 16.2154 33.2038 17.8492L35.6555 18.3876ZM27.0673 29.7917C28.3368 29.7917 29.4022 29.7941 30.261 29.6784C31.1538 29.5583 31.9682 29.2956 32.679 28.6583L31.0997 26.5265C30.891 26.7135 30.5952 26.8629 29.9573 26.9489C29.2853 27.0393 28.3995 27.0417 27.0673 27.0417V29.7917ZM32.3725 22.2862C32.1035 23.7213 31.9225 24.6754 31.7063 25.381C31.5012 26.0508 31.3083 26.3395 31.0997 26.5265L32.679 28.6583C33.3898 28.021 33.7882 27.1968 34.0755 26.2592C34.3518 25.3572 34.5647 24.209 34.821 22.8413L32.3725 22.2862Z" fill="#7E5E60"/>
</svg>
