<svg width="20" height="20" viewBox="0 0 20 20" fill="none" xmlns="http://www.w3.org/2000/svg">
<g clip-path="url(#clip0_3_46)">
<path d="M19.8537 19.1463L14.8537 14.1463C14.8513 14.144 14.8483 14.1433 14.846 14.1413C16.1817 12.64 17 10.668 17 8.5C17 3.80566 13.1943 0 8.5 0C3.80566 0 0 3.80566 0 8.5C0 13.1943 3.80566 17 8.5 17C10.668 17 12.6396 16.1817 14.1413 14.8457C14.1437 14.848 14.1443 14.851 14.1463 14.8533L19.1463 19.8533C19.244 19.9513 19.372 20 19.5 20C19.628 20 19.756 19.9513 19.8537 19.8537C20.0487 19.6583 20.0487 19.3417 19.8537 19.1463ZM8.5 16C4.36465 16 1 12.6354 1 8.5C1 4.36465 4.36465 1 8.5 1C12.6354 1 16 4.36465 16 8.5C16 12.6354 12.6354 16 8.5 16Z" fill="#7E5E60"/>
</g>
<defs>
<clipPath id="clip0_3_46">
<rect width="20" height="20" fill="white"/>
</clipPath>
</defs>
</svg>
