<svg width="20" height="20" viewBox="0 0 20 20" fill="none" xmlns="http://www.w3.org/2000/svg">
<g clip-path="url(#clip0_11_567)">
<path d="M10 0C4.4775 0 0 4.4775 0 10C0 15.5225 4.4775 20 10 20C15.5225 20 20 15.5225 20 10C20 4.4775 15.5225 0 10 0ZM14.9117 6.85083L13.27 14.5842C13.1492 15.1325 12.8225 15.2658 12.3667 15.0075L9.86667 13.1658L8.66167 14.3275C8.545 14.4775 8.36417 14.5733 8.16167 14.5733C8.16 14.5733 8.15917 14.5733 8.1575 14.5733L8.335 12.0283L12.9683 7.84333C13.1683 7.66583 12.9233 7.565 12.6575 7.7425L6.93333 11.3475L4.46667 10.5775C3.93333 10.4083 3.91833 10.0442 4.57917 9.7825L14.2175 6.0675C14.6658 5.90417 15.0558 6.17417 14.9108 6.85167L14.9117 6.85083Z" fill="#7E5E60"/>
</g>
<defs>
<clipPath id="clip0_11_567">
<rect width="20" height="20" fill="white"/>
</clipPath>
</defs>
</svg>
