<svg width="20" height="20" viewBox="0 0 20 20" fill="none" xmlns="http://www.w3.org/2000/svg">
<g clip-path="url(#clip0_11_564)">
<path d="M14.5599 11.985C14.3124 11.8609 13.0949 11.2625 12.8682 11.1792C12.6407 11.0967 12.4757 11.0559 12.3099 11.3042C12.1457 11.5517 11.6707 12.1092 11.5265 12.2742C11.3824 12.44 11.2374 12.46 10.9899 12.3367C10.7424 12.2117 9.94403 11.9509 8.9982 11.1075C8.26236 10.4509 7.76486 9.64003 7.6207 9.3917C7.47653 9.1442 7.6057 9.01003 7.72903 8.8867C7.8407 8.77587 7.97736 8.59753 8.1007 8.45337C8.22486 8.30837 8.2657 8.20503 8.34903 8.0392C8.43153 7.8742 8.3907 7.73003 8.3282 7.60587C8.2657 7.4817 7.7707 6.26253 7.56486 5.7667C7.3632 5.2842 7.15903 5.35003 7.00736 5.3417C6.8632 5.33503 6.6982 5.33337 6.53236 5.33337C6.36736 5.33337 6.09903 5.39503 5.87236 5.64337C5.6457 5.89087 5.0057 6.49003 5.0057 7.7092C5.0057 8.92753 5.8932 10.105 6.01653 10.2709C6.1407 10.4359 7.7632 12.9375 10.2474 14.01C10.8382 14.265 11.299 14.4175 11.659 14.5309C12.2524 14.72 12.7924 14.6934 13.2182 14.6292C13.694 14.5584 14.6832 14.03 14.8899 13.4517C15.0965 12.8734 15.0965 12.3775 15.034 12.2742C14.9724 12.1709 14.8082 12.1092 14.5599 11.985ZM10.0415 18.1542H10.0382C8.563 18.1543 7.11493 17.7577 5.8457 17.0059L5.54486 16.8275L2.42736 17.6459L3.25903 14.6059L3.0632 14.2942C2.23856 12.9811 1.80231 11.4614 1.80486 9.91087C1.8057 5.3692 5.50153 1.6742 10.0449 1.6742C12.2449 1.6742 14.3132 2.53253 15.8682 4.0892C16.6354 4.85305 17.2435 5.76147 17.6574 6.7619C18.0712 7.76233 18.2825 8.8349 18.279 9.91753C18.2765 14.4592 14.5815 18.1542 10.0415 18.1542ZM17.0524 2.9067C16.1342 1.98247 15.0417 1.24965 13.8383 0.750701C12.6348 0.251754 11.3443 -0.00339687 10.0415 3.4148e-05C4.57903 3.4148e-05 0.133197 4.44587 0.130697 9.91003C0.130697 11.6567 0.58653 13.3617 1.45403 14.8642L0.0473633 20L5.30153 18.6217C6.75452 19.4133 8.38273 19.8282 10.0374 19.8284H10.0415C15.5032 19.8284 19.9499 15.3825 19.9524 9.91753C19.9564 8.61526 19.7022 7.32512 19.2044 6.12173C18.7066 4.91834 17.9752 3.82559 17.0524 2.9067Z" fill="#7E5E60"/>
</g>
<defs>
<clipPath id="clip0_11_564">
<rect width="20" height="20" fill="white"/>
</clipPath>
</defs>
</svg>
